Coordinates
version=1
nRows=38
nColumns=12
inDegrees=yes

Units are S.I. units (second, meters, Newtons, ...)
Angles are in degrees

endheader
time	SC_y	SC_z	SC_x	AC_y	AC_z	AC_x	GH_y	GH_z	GH_yy	EL_x	PS_y
       0.0              -33.87          38.39          37.84          63.46         -3.597          4.947          17.16          39.83          150.7          32.37           77.9
  0.003572              -33.87          38.38          37.85          63.46         -3.595          4.948          17.17          39.82          150.6          32.38          77.91
  0.007144              -33.87          38.38          37.85          63.45         -3.593           4.95          17.18          39.82          150.6          32.39          77.92
   0.01072              -33.86          38.38          37.86          63.45         -3.591          4.952           17.2          39.81          150.5           32.4          77.93
   0.01429              -33.86          38.38          37.86          63.44         -3.589          4.954          17.21          39.81          150.5          32.41          77.95
   0.01786              -33.86          38.37          37.87          63.44         -3.587          4.956          17.23           39.8          150.4          32.42          77.96
   0.02143              -33.86          38.37          37.87          63.43         -3.585          4.958          17.25          39.79          150.3          32.43          77.98
     0.025              -33.86          38.37          37.88          63.43         -3.583           4.96          17.27          39.79          150.3          32.44          77.99
   0.02858              -33.85          38.36          37.89          63.42          -3.58          4.963          17.29          39.78          150.2          32.45          78.01
   0.03215              -33.85          38.36          37.89          63.42         -3.577          4.965          17.31          39.77          150.1          32.46          78.03
   0.03572              -33.85          38.36           37.9          63.41         -3.574          4.968          17.33          39.76          150.0          32.47          78.05
   0.03929              -33.85          38.35          37.91          63.41         -3.571          4.971          17.36          39.75          149.9          32.49          78.07
   0.04286              -33.84          38.35          37.92           63.4         -3.567          4.975          17.39          39.74          149.8           32.5           78.1
   0.04644              -33.84          38.34          37.93          63.39         -3.564          4.978          17.42          39.73          149.7          32.52          78.12
   0.05001              -33.84          38.34          37.94          63.38          -3.56          4.982          17.45          39.72          149.6          32.54          78.15
   0.05358              -33.83          38.33          37.95          63.37         -3.555          4.986          17.48          39.71          149.5          32.56          78.18
   0.05715              -33.83          38.33          37.97          63.36          -3.55          4.991          17.52          39.69          149.4          32.58          78.21
   0.06072              -33.82          38.32          37.98          63.35         -3.545          4.996          17.56          39.68          149.2           32.6          78.25
    0.0643              -33.82          38.31           38.0          63.34          -3.54          5.002          17.61          39.66          149.0          32.63          78.29
   0.06787              -33.81          38.31          38.01          63.33         -3.533          5.008          17.66          39.65          148.9          32.65          78.33
   0.07144              -33.81           38.3          38.03          63.31         -3.526          5.014          17.71          39.63          148.7          32.69          78.38
   0.07501               -33.8          38.29          38.05           63.3         -3.519          5.021          17.77           39.6          148.5          32.72          78.43
   0.07858              -33.79          38.28          38.07          63.28         -3.511          5.029          17.84          39.58          148.2          32.76          78.48
   0.08216              -33.78          38.27           38.1          63.26         -3.501          5.038          17.91          39.55          148.0           32.8          78.55
   0.08573              -33.77          38.25          38.13          63.24         -3.491          5.048          17.99          39.52          147.7          32.84          78.62
    0.0893              -33.76          38.24          38.16          63.22          -3.48          5.059          18.08          39.49          147.3          32.89          78.69
   0.09287              -33.75          38.22          38.19          63.19         -3.467          5.071          18.18          39.46          147.0          32.95          78.78
   0.09644              -33.74           38.2          38.23          63.16         -3.452          5.085          18.29          39.41          146.6          33.01          78.88
       0.1              -33.72          38.18          38.27          63.12         -3.436          5.101          18.42          39.37          146.1          33.08          78.99
    0.1036              -33.71          38.16          38.32          63.09         -3.418          5.119          18.57          39.31          145.6          33.17          79.12
    0.1072              -33.69          38.13          38.38          63.04         -3.397          5.139          18.74          39.25          145.0          33.26          79.26
    0.1107              -33.67           38.1          38.45          62.99         -3.372          5.162          18.93          39.19          144.3          33.37          79.43
    0.1143              -33.64          38.07          38.52          62.93         -3.344          5.189          19.15          39.11          143.5          33.49          79.62
    0.1179              -33.61          38.03          38.61          62.87         -3.312           5.22          19.41          39.01          142.6          33.64          79.84
    0.1214              -33.58          37.98          38.71          62.79         -3.274          5.257          19.71           38.9          141.5           33.8           80.1
     0.125              -33.54          37.92          38.83          62.69         -3.229            5.3          20.06          38.78          140.2           34.0           80.4
    0.1286              -33.49          37.86          38.98          62.58         -3.176          5.351          20.48          38.62          138.7          34.24          80.76
    0.1322              -33.44          37.78          39.15          62.45         -3.112          5.412          20.98          38.44          136.9          34.52           81.2
